<?xml version="1.0" encoding="UTF-8"?>
<svg id="Layer_1" xmlns="http://www.w3.org/2000/svg" version="1.1" viewBox="0 0 441 159">
  <!-- Generator: Adobe Illustrator 30.1.0, SVG Export Plug-In . SVG Version: 2.1.1 Build 136)  -->
  <defs>
    <style>
      .st0 {
        fill: #f9b000;
      }

      .st1 {
        fill: #00b1b2;
      }
    </style>
  </defs>
  <polygon class="st0" points="142.1 129.9 134.8 129.9 128.5 137.8 128.5 121.7 123 123.2 123 149.9 128.5 149.9 128.5 140.5 136.2 149.9 143.4 149.9 133.8 138.9 142.1 129.9"/>
  <rect class="st0" x="182.3" y="131.4" width="5.5" height="18.4"/>
  <polygon class="st0" points="182.2 128.1 188 128.1 188 121.3 182.2 122.8 182.2 128.1"/>
  <path class="st0" d="M245.1,132s-3-2.3-6.9-2.3c-6.1,0-9.9,4.4-9.9,10.1s4,10.3,10,10.3,7-2.5,7-2.5c-.1.3-.1,1.9-.1,2.3h5.5v-28.1l-5.5,1.3v8.9h-.1ZM245.1,143c-.1,0-2.8,2.2-6,2.2s-5.2-2.4-5.2-5.3,2.1-5.2,5.2-5.2,6,2.1,6,2.1v6.2Z"/>
  <path class="st0" d="M297.8,135.5c0-1.2,1.3-1.4,2.4-1.4,2.6,0,5.4.9,7.2,2.1v-4.6c-1.5-.8-4-1.9-7.8-1.9s-7.6,2.7-7.6,6.1c0,7,10.4,5.8,10.4,8.6s-1.4,1.3-2.4,1.3c-3.2,0-6-1-8.2-2.3v4.6c1.8,1.1,4.7,2.1,9.1,2.1s7.4-2.7,7.4-6.2c0-6.6-10.5-5.8-10.5-8.4Z"/>
  <path class="st0" d="M398.9,83.6c-10.1,8-30.8-1.1-30.8-1.1,0,0,15.4,18.4,39.5,10.2-8.4-1.9-9.3-8.6-8.7-9.1Z"/>
  <path class="st0" d="M411.9,71.8c-2.1,2.8-4.5,5.2-7.3,7.3.6,4.8,4.1,8.2,9.1,8.9,3.5-3,6.7-6.4,9.4-10.2-4.7.8-9.1-1.5-11.2-6Z"/>
  <path class="st0" d="M417.5,56.2c-.5,3.6-1.4,7-2.8,10.2,2.5,4.2,7,6.1,11.8,4.7,2.2-4.8,3.6-9.9,4.2-15.2-3.9,3.3-9,3.4-13.2.3Z"/>
  <path class="st0" d="M414.5,39.4c1.4,3.3,2.4,6.9,2.8,10.7,4.2,2.8,9.3,2.5,13-1.1-.6-5.6-2-10.9-4.2-15.7-1.9,4.6-6.4,7-11.6,6.1Z"/>
  <path class="st0" d="M411.8,34.2c5.2.6,9.5-2.1,11.2-6.9-3.9-5.5-8.8-10.1-14.5-13.7,1.5,5-.5,9.8-5.2,12.3,3.2,2.3,6.1,5.1,8.5,8.3Z"/>
  <path class="st1" d="M348.5,50.6c1.9-16.3,10.7-24.6,24.7-29.3,8.7-2.9,18.2-1.5,23.6.7,4.7-1.9,7.3-7.6,4.9-12.7,0,0-4-1.5-5.6-2h0c-5.4-1.5-12.9-1.7-18.8-1-29.1,3.6-46.9,26-44.3,52.4.8,8.6,3.9,16.6,8.6,23.3h0c9.5,13.6,29.6,20.9,47.1,19.4-22.5-3.6-43.5-22.6-40.2-50.8Z"/>
  <polygon class="st1" points="119.3 59.9 156.2 59.9 156.2 46.5 119.3 46.5 119.3 22.8 161 22.8 161 8.7 104.3 8.7 104.3 97.9 162.6 97.9 162.6 83.7 119.3 83.7 119.3 59.9"/>
  <polygon class="st1" points="235.2 83.7 192 83.7 192 59.9 228.9 59.9 228.9 46.5 192 46.5 192 22.8 233.7 22.8 233.7 8.7 177 8.7 177 97.9 235.2 97.9 235.2 83.7"/>
  <path class="st1" d="M89.7,54.1h-14.9v24.9c-5.7,3.7-12.8,5.5-21.3,5.5s-15.7-2.9-21.6-8.6c-6-5.7-8.9-13.4-8.9-22.9s3.1-17.1,9.2-23c6.1-5.8,13.7-8.7,22.7-8.7s8.8.6,12.3,1.7,7,3.2,10.5,6.2l8-11.5c-8.5-7.5-19.2-11.2-32-11.2s-23.8,4.4-32.9,13.3S7.2,39.7,7.2,53s4.4,24.3,13.3,32.9c8.9,8.7,19.9,13,33.1,13s27.7-4.6,36.1-13.9v-30.9h0Z"/>
  <path class="st1" d="M323,54.2h-14.9v24.9c-5.7,3.7-12.8,5.5-21.3,5.5s-15.7-2.9-21.6-8.6c-6-5.7-8.9-13.4-8.9-22.9s3.1-17.1,9.2-23c6.1-5.8,13.7-8.7,22.7-8.7s8.8.6,12.3,1.7,7,3.2,10.5,6.2l8-11.5c-8.5-7.5-19.2-11.2-32-11.2s-23.8,4.4-32.9,13.3-13.6,19.9-13.6,33.2,4.4,24.3,13.3,32.9c8.9,8.7,19.9,13,33.1,13s27.7-4.6,36.1-13.9v-30.9h0Z"/>
</svg>